<svg width="100" height="100" viewBox="0 0 100 100" fill="none" xmlns="http://www.w3.org/2000/svg">
<path fill-rule="evenodd" clip-rule="evenodd" d="M100 50.0005C100 77.6145 77.614 100 50 100C22.386 100 0 77.6145 0 50.0005C0 22.3865 22.386 0.000488281 50 0.000488281C77.614 0.000488281 100 22.3865 100 50.0005Z" fill="#ADB4BA"/>
<mask id="mask0" mask-type="alpha" maskUnits="userSpaceOnUse" x="0" y="0" width="100" height="101">
<path fill-rule="evenodd" clip-rule="evenodd" d="M100 50.0005C100 77.6145 77.614 100 50 100C22.386 100 0 77.6145 0 50.0005C0 22.3865 22.386 0.000488281 50 0.000488281C77.614 0.000488281 100 22.3865 100 50.0005Z" fill="white"/>
</mask>
<g mask="url(#mask0)">
<path fill-rule="evenodd" clip-rule="evenodd" d="M8.64941 100C8.64941 90.9735 12.9714 78.8895 24.9874 74.3895C24.9874 74.3895 27.5364 73.1495 37.1034 72.5295C38.3504 70.2935 38.8514 66.9315 39.0534 64.1285C32.6164 59.3985 28.2844 50.6615 28.2844 40.6225C28.2844 25.5595 30.1474 15.0005 50.0654 15.0005C69.9804 15.0005 71.8534 25.5595 71.8534 40.6225C71.8534 50.7155 67.4604 59.5145 60.9494 64.2295C61.1074 67.0725 61.5794 70.4545 62.8184 72.6715C71.6104 73.3115 75.0974 74.3895 75.0974 74.3895C87.6654 77.7915 91.4344 90.9735 91.4344 100H8.64941Z" fill="#273B49"/>
</g>
</svg>
